<svg width="251" height="19" viewBox="0 0 251 19" fill="none" xmlns="http://www.w3.org/2000/svg">
<path fill-rule="evenodd" clip-rule="evenodd" d="M240.636 12.4252L246.364 18.8439H241.249L235.51 12.4252L231.376 7.86743H244.225C245.138 7.86743 245.896 7.1208 245.896 6.20702C245.896 5.30439 245.138 4.54662 244.225 4.54662H228.768L224.211 0H244.225C247.646 0 250.443 2.79706 250.443 6.20702C250.443 9.62813 247.646 12.4252 244.225 12.4252H240.636ZM0 0.066862H12.8932H17.4398H30.3331V4.61348H17.4398V18.8439H12.8932V4.61348H0V0.066862ZM53.4785 0.066862H68.2104C73.1025 0.066862 77.1031 4.06744 77.1031 8.94837V9.9513C77.1031 14.8434 73.1025 18.8439 68.2104 18.8439H53.4785C48.5864 18.8439 44.5858 14.8434 44.5858 9.9513V8.94837C44.5858 4.06744 48.5864 0.066862 53.4785 0.066862ZM53.4785 4.61348H68.2104C70.5952 4.61348 72.5453 6.56362 72.5453 8.94837V9.9513C72.5453 12.336 70.5952 14.2862 68.2104 14.2862H53.4785C51.0937 14.2862 49.1436 12.336 49.1436 9.9513V8.94837C49.1436 6.56362 51.0937 4.61348 53.4785 4.61348ZM98.7218 0.066862V10.1519L98.8109 10.0516L114.423 0.066862H122.569L110.021 7.90086L125.567 18.8439H117.332L105.609 10.6533L98.7218 14.9548V18.8439H94.164V14.9548V0.066862H98.7218ZM154.607 0.100293L171.769 18.8439H150.44L154.986 14.2862H161.427L154.652 6.87564L143.72 18.8439H137.836L154.607 0.100293Z" fill="#2B2A28"/>
</svg>
